<?xml version="1.0" standalone="no"?>
<!DOCTYPE svg PUBLIC "-//W3C//DTD SVG 20010904//EN"
 "http://www.w3.org/TR/2001/REC-SVG-20010904/DTD/svg10.dtd">
<svg version="1.0" xmlns="http://www.w3.org/2000/svg"
 width="972.000000pt" height="972.000000pt" viewBox="0 0 972.000000 972.000000"
 preserveAspectRatio="xMidYMid meet">
<metadata>
Created by potrace 1.11, written by Peter Selinger 2001-2013
</metadata>
<g transform="translate(0.000000,972.000000) scale(0.100000,-0.100000)"
fill="#000000" stroke="none">
<path d="M577 8893 c-5 -7 -12 -169 -23 -468 -1 -49 -5 -164 -9 -255 -3 -91
-7 -226 -10 -300 -2 -74 -7 -193 -10 -265 -3 -71 -8 -193 -10 -270 -5 -162
-13 -388 -20 -560 -3 -66 -8 -192 -10 -280 -8 -231 -15 -420 -18 -498 -2 -37
-1 -69 1 -72 2 -2 24 10 47 28 24 18 69 50 100 72 32 22 63 45 69 50 6 6 33
26 61 45 27 19 54 39 60 43 5 4 84 61 175 126 91 66 173 126 183 135 9 9 22
16 27 16 6 0 10 3 10 8 0 4 18 18 40 32 22 13 40 28 40 32 0 4 4 8 10 8 5 0
44 26 87 58 43 32 89 65 103 74 14 10 82 59 152 110 69 51 136 100 148 108 12
8 43 31 69 50 104 77 491 357 521 378 21 14 68 48 132 95 9 6 51 37 92 67 116
84 260 188 271 198 6 4 33 23 60 42 28 18 52 36 55 40 4 5 121 89 194 140 11
8 26 19 33 25 6 5 34 26 62 45 28 19 51 37 51 40 0 3 -102 39 -227 79 -126 41
-239 79 -253 84 -14 6 -28 11 -32 12 -5 2 -9 3 -10 5 -2 1 -10 3 -18 5 -21 4
-180 55 -205 65 -24 10 -813 270 -835 275 -8 2 -16 4 -17 5 -2 2 -6 3 -10 5
-5 1 -15 4 -23 8 -8 3 -258 85 -555 182 -297 98 -543 179 -547 181 -4 3 -9 1
-11 -3z"/>
<path d="M9000 8849 c-80 -27 -192 -65 -250 -84 -58 -20 -116 -38 -129 -41
-13 -3 -37 -12 -52 -20 -16 -8 -30 -13 -31 -12 -3 2 -180 -54 -218 -69 -8 -3
-19 -7 -25 -8 -5 -2 -149 -49 -320 -106 -170 -57 -314 -104 -320 -105 -5 -1
-91 -30 -190 -64 -99 -33 -191 -63 -204 -66 -13 -3 -31 -9 -40 -13 -9 -5 -18
-9 -21 -9 -3 -1 -12 -3 -20 -6 -8 -3 -114 -37 -235 -76 -121 -39 -227 -74
-235 -77 -8 -4 -17 -7 -20 -8 -3 -1 -12 -4 -20 -8 -22 -8 -149 -48 -163 -51
-7 -2 -23 -8 -37 -13 -14 -6 -34 -12 -45 -14 -15 -3 36 -45 190 -156 116 -84
215 -156 220 -160 6 -5 51 -37 100 -73 50 -35 92 -67 95 -70 3 -4 30 -23 60
-44 30 -20 71 -49 91 -64 20 -15 74 -54 120 -87 46 -32 90 -65 96 -71 7 -7 29
-22 50 -35 21 -13 42 -29 46 -36 4 -7 15 -13 22 -13 8 0 15 -4 15 -8 0 -4 12
-15 28 -24 15 -9 37 -25 49 -35 12 -10 56 -42 98 -72 136 -96 828 -598 897
-650 36 -28 71 -51 76 -51 6 0 12 -4 14 -8 2 -4 48 -40 103 -80 55 -39 105
-75 110 -79 6 -5 26 -20 45 -33 19 -13 40 -28 45 -33 6 -4 48 -35 95 -69 47
-33 107 -76 133 -96 l48 -35 -6 169 c-7 180 -13 354 -19 549 -3 66 -7 179 -10
250 -7 143 -14 350 -21 550 -6 171 -14 372 -20 520 -3 66 -7 190 -10 275 -3
85 -7 216 -10 290 -3 74 -8 187 -10 250 -2 63 -4 118 -5 123 0 10 1 10 -160
-44z"/>
<path d="M3612 7992 c-18 -3 35 -43 225 -170 136 -91 343 -229 458 -307 l210
-141 12 -59 c7 -33 15 -76 17 -95 3 -19 7 -48 10 -65 12 -60 19 -100 21 -120
2 -11 6 -33 9 -50 3 -16 8 -50 12 -75 3 -25 7 -52 9 -60 4 -15 13 -62 20 -110
2 -14 7 -38 10 -55 11 -62 22 -126 29 -175 3 -19 17 -102 31 -184 14 -81 27
-162 30 -180 3 -17 7 -42 10 -56 3 -14 7 -41 10 -60 3 -19 10 -60 16 -90 6
-30 12 -68 14 -85 3 -16 7 -41 9 -55 3 -14 8 -43 11 -65 3 -23 8 -52 10 -65 3
-14 8 -41 11 -60 8 -55 13 -83 19 -110 3 -14 7 -41 10 -60 2 -19 6 -44 8 -55
3 -11 8 -44 12 -73 8 -58 11 -61 19 -17 6 30 12 59 21 105 4 23 14 83 21 135
1 11 3 20 4 20 1 0 3 12 5 26 4 32 13 83 21 124 3 17 7 46 9 65 2 19 4 35 5
35 3 0 18 90 25 145 2 14 4 26 5 28 1 1 3 10 4 20 2 15 10 63 22 127 2 10 6
35 9 55 3 20 7 47 10 60 3 13 7 42 10 65 3 22 10 63 16 90 5 28 11 64 13 80 8
54 17 110 21 125 2 8 7 35 10 60 3 25 8 59 12 75 3 17 7 39 9 50 9 63 14 93
19 115 2 13 7 40 10 60 3 20 8 47 10 60 7 34 23 132 30 190 3 19 11 64 19 99
15 67 39 96 99 122 15 6 27 15 27 19 0 4 14 13 30 20 17 7 30 16 30 21 0 4 9
11 20 14 11 3 26 12 33 18 24 23 136 97 146 97 5 0 11 4 13 8 2 5 37 30 78 57
41 27 78 53 82 59 4 6 8 7 8 3 0 -5 6 -2 14 5 7 7 88 63 179 123 91 61 164
111 162 113 -4 5 -2493 8 -2523 4z"/>
<path d="M3259 6203 c-35 -27 -65 -51 -67 -55 -2 -5 -8 -8 -13 -8 -8 0 -29
-15 -124 -88 -5 -4 -26 -19 -45 -32 -19 -13 -39 -28 -45 -33 -5 -4 -53 -39
-105 -77 -52 -38 -104 -76 -115 -84 -11 -8 -137 -100 -280 -204 -143 -105
-268 -197 -277 -206 -10 -9 -21 -16 -24 -16 -3 0 -11 -6 -19 -12 -7 -7 -48
-38 -90 -68 -87 -62 -295 -214 -310 -227 -5 -5 -32 -24 -60 -43 -27 -18 -52
-36 -55 -40 -12 -14 -342 -250 -350 -250 -4 0 -10 -4 -12 -9 -1 -5 -59 -50
-128 -100 -69 -49 -130 -94 -136 -99 -6 -5 -35 -27 -65 -48 -62 -45 -137 -100
-159 -118 -9 -6 -38 -27 -65 -46 -27 -19 -56 -40 -65 -46 -20 -17 -249 -185
-345 -254 -43 -30 -85 -62 -95 -70 -11 -8 -62 -46 -114 -84 l-95 -69 22 -31
c21 -31 140 -193 155 -211 4 -5 23 -32 42 -60 39 -55 59 -81 78 -100 6 -8 12
-16 12 -20 0 -3 9 -15 20 -27 11 -12 20 -28 20 -35 0 -7 4 -13 9 -13 4 0 21
-19 37 -42 16 -24 34 -50 42 -58 7 -8 59 -78 115 -155 143 -197 139 -192 167
-229 14 -19 33 -45 42 -58 103 -142 340 -465 374 -510 24 -31 44 -59 44 -63 0
-3 10 -17 23 -30 12 -13 60 -77 107 -143 79 -113 89 -122 140 -143 30 -12 64
-27 75 -33 11 -6 22 -11 25 -12 9 -2 45 -16 80 -32 19 -8 60 -25 90 -37 80
-33 659 -274 700 -293 19 -8 37 -16 40 -17 20 -7 51 -20 87 -36 24 -10 45 -19
47 -19 2 0 21 -8 42 -17 22 -9 41 -17 44 -18 5 -2 15 -6 140 -60 47 -20 92
-38 100 -40 8 -2 58 -22 110 -45 100 -43 103 -44 190 -80 30 -13 73 -31 95
-40 22 -10 76 -32 120 -50 44 -17 98 -40 120 -50 22 -10 133 -57 248 -104
l207 -86 858 0 857 0 53 25 c28 13 52 22 52 19 0 -3 12 2 28 10 15 8 44 22 65
30 20 9 52 23 71 31 19 8 37 15 40 15 3 0 29 11 58 24 29 13 109 47 178 75 69
29 139 58 155 66 17 7 140 59 275 114 135 56 254 106 265 111 11 5 92 39 180
75 88 36 169 70 180 75 11 5 65 28 120 51 55 22 114 47 130 54 17 8 71 30 120
50 50 21 104 43 120 50 17 8 59 26 95 40 36 15 79 33 95 40 17 8 71 30 120 50
50 21 101 42 115 48 14 5 28 10 33 9 4 -1 7 3 7 9 0 5 4 8 9 4 9 -5 71 47 71
59 0 3 21 34 48 68 26 35 81 110 122 167 41 57 104 143 140 191 36 49 72 98
80 111 8 12 23 31 33 41 9 10 17 20 17 23 0 3 5 11 10 18 6 7 42 55 81 107 38
52 76 103 84 113 8 9 15 19 15 22 0 8 94 130 102 133 5 2 8 8 8 13 0 5 6 17
14 26 19 23 55 72 191 258 60 83 113 152 117 153 4 2 8 8 8 13 0 7 52 79 118
164 4 6 23 33 42 60 19 28 38 52 41 55 19 15 88 124 83 131 -3 5 -26 23 -52
41 -26 18 -53 38 -62 44 -58 47 -153 114 -161 114 -5 0 -9 4 -9 8 0 4 -20 21
-45 36 -25 16 -45 33 -45 37 0 5 -5 9 -11 9 -11 0 -92 60 -97 73 -2 4 -10 7
-18 7 -8 0 -17 7 -20 15 -4 8 -11 15 -16 15 -5 0 -29 16 -52 35 -24 19 -48 35
-55 35 -6 0 -11 4 -11 9 0 5 -13 17 -30 28 -48 30 -425 307 -428 315 -2 5 -10
8 -18 8 -8 0 -14 3 -14 8 0 4 -17 18 -38 32 -20 14 -67 47 -104 75 -36 27 -76
57 -89 65 -12 8 -31 23 -41 33 -10 9 -18 14 -18 10 0 -5 -4 -3 -8 2 -12 17
-90 75 -101 75 -5 0 -11 3 -13 8 -4 9 -126 102 -134 102 -3 0 -11 6 -19 13 -7
6 -25 21 -41 32 -15 11 -56 41 -91 68 -34 26 -65 47 -68 47 -4 0 -13 6 -20 13
-27 23 -41 34 -133 100 -198 144 -327 241 -330 249 -2 4 -10 8 -18 8 -8 0 -22
9 -31 20 -10 11 -21 20 -25 20 -4 0 -17 8 -29 18 -37 30 -58 46 -94 72 -20 14
-57 41 -83 60 -26 20 -173 128 -327 240 -154 112 -283 207 -286 212 -11 16
-34 -2 -69 -54 -19 -28 -40 -56 -45 -62 -6 -6 -22 -27 -35 -46 -13 -19 -28
-39 -33 -45 -6 -8 -191 -259 -271 -370 -8 -11 -33 -45 -56 -75 -22 -30 -47
-64 -55 -76 -8 -11 -58 -79 -110 -150 -52 -71 -134 -183 -182 -249 -48 -66
-89 -122 -93 -125 -3 -3 -28 -36 -55 -75 -27 -38 -53 -74 -57 -80 -18 -22
-111 -148 -232 -313 -101 -139 -124 -176 -114 -185 7 -7 36 -28 63 -47 28 -19
52 -37 55 -41 6 -6 419 -308 484 -353 22 -16 43 -32 46 -36 3 -4 28 -22 55
-41 28 -19 87 -62 133 -97 45 -34 87 -62 91 -62 5 0 11 -3 13 -7 2 -5 21 -21
43 -38 22 -16 45 -33 50 -37 16 -12 155 -114 213 -155 29 -21 58 -43 65 -48 7
-6 28 -22 47 -35 19 -13 40 -28 45 -33 9 -7 82 -61 140 -102 11 -8 45 -33 75
-55 30 -23 66 -49 78 -58 13 -9 39 -28 57 -42 19 -14 56 -41 84 -60 27 -19 50
-38 51 -42 0 -5 5 -8 10 -8 6 0 16 -5 23 -11 7 -5 46 -35 87 -65 41 -30 82
-60 90 -67 8 -7 56 -41 105 -77 50 -35 92 -68 93 -72 2 -4 10 -8 17 -8 7 0 15
-4 17 -8 2 -4 38 -33 81 -65 l79 -57 -29 -11 c-15 -6 -36 -15 -46 -20 -9 -5
-43 -19 -75 -31 -31 -11 -68 -28 -82 -37 -13 -9 -24 -15 -25 -13 0 4 -29 -6
-80 -28 -119 -52 -301 -124 -307 -122 -5 1 -8 -3 -8 -8 0 -6 -7 -10 -15 -10
-8 0 -23 -4 -33 -10 -19 -10 -399 -170 -406 -170 -2 0 -25 -10 -52 -22 -27
-12 -51 -23 -54 -23 -3 0 -27 -11 -54 -23 -27 -12 -52 -22 -55 -22 -4 0 -35
-14 -69 -30 -34 -17 -67 -30 -72 -30 -5 0 -29 -9 -52 -19 -129 -58 -159 -71
-164 -71 -3 0 -21 -7 -40 -15 -19 -8 -49 -22 -68 -30 -19 -8 -38 -15 -43 -15
-4 0 -7 44 -5 97 1 54 2 149 2 211 -1 143 -1 123 0 259 1 100 -1 119 -16 130
-9 7 -21 10 -27 6 -15 -9 -59 -10 -84 -1 -12 4 -25 3 -28 -3 -4 -5 -13 -6 -21
-1 -8 5 -37 5 -65 2 -27 -4 -52 -3 -55 1 -3 5 -16 4 -30 -1 -14 -6 -23 -7 -21
-2 3 4 -8 7 -24 7 -16 0 -29 -3 -29 -7 0 -4 -10 -4 -22 1 -13 5 -32 5 -43 1
-11 -4 -29 -4 -39 0 -11 3 -39 3 -63 0 -24 -4 -46 -3 -49 1 -2 5 -16 4 -30 -1
-14 -6 -23 -7 -21 -2 3 4 -8 7 -24 7 -16 0 -29 -3 -29 -7 0 -4 -10 -4 -22 1
-13 5 -32 5 -43 1 -11 -4 -29 -4 -40 0 -11 3 -33 3 -50 0 -16 -3 -40 -3 -52 1
-13 5 -25 4 -28 -2 -4 -5 -11 -6 -17 -3 -9 6 -87 8 -113 4 -15 -3 -75 -1 -112
3 -18 2 -33 0 -33 -5 0 -4 -10 -4 -22 1 -13 5 -33 5 -46 0 -13 -5 -21 -5 -18
-1 2 4 -20 5 -50 2 -31 -3 -54 -2 -54 3 0 5 -6 5 -13 -1 -7 -6 -18 -7 -26 -3
-7 4 -30 5 -51 1 -21 -4 -44 -4 -50 0 -6 3 -24 5 -40 2 -27 -4 -30 -8 -31 -41
0 -20 0 -175 0 -346 0 -170 -3 -313 -5 -317 -3 -4 -20 2 -39 12 -20 11 -37 20
-40 20 -10 1 -42 14 -94 37 -29 14 -71 31 -92 39 -22 7 -54 20 -72 28 -17 8
-93 40 -167 71 -206 85 -292 122 -387 162 -48 21 -89 37 -90 35 -2 -2 -16 4
-31 12 -33 17 -120 56 -127 56 -2 0 -29 11 -59 25 -30 14 -57 25 -59 25 -2 0
-26 10 -53 22 -27 12 -51 23 -54 23 -3 1 -17 7 -31 13 -15 6 -96 40 -180 75
-202 84 -193 80 -201 79 -5 -1 -8 3 -8 8 0 6 -9 10 -20 10 -43 0 -47 -3 250
214 133 97 183 134 195 144 6 4 26 19 45 32 19 13 40 29 47 35 7 5 62 46 123
90 61 44 135 98 164 120 30 22 64 48 77 57 13 9 74 53 134 97 61 45 121 89
134 98 13 10 30 24 37 31 7 6 15 12 18 12 3 0 32 19 63 43 32 24 87 65 123 91
36 26 75 55 87 64 12 9 31 24 43 32 20 13 76 55 105 78 6 4 35 25 65 47 30 22
61 45 68 52 6 6 21 15 32 18 11 3 20 11 20 16 0 5 8 13 17 16 9 4 24 13 32 21
18 16 492 364 531 390 14 9 37 26 51 37 l27 22 -70 94 c-39 52 -98 132 -132
179 -33 47 -63 87 -67 90 -3 3 -20 26 -37 52 -18 25 -38 52 -45 60 -7 7 -21
26 -31 43 -11 16 -23 34 -28 40 -15 19 -63 82 -78 105 -8 12 -25 34 -37 48
-13 15 -23 30 -23 34 0 4 -6 13 -13 20 -13 13 -259 347 -311 422 -16 22 -32
43 -37 44 -5 2 -9 10 -9 17 0 7 -3 15 -8 17 -4 2 -25 28 -47 58 -22 30 -43 60
-48 65 -10 14 -138 188 -157 215 -8 12 -31 43 -50 69 -19 26 -44 60 -55 75
-50 68 -116 156 -119 156 -1 0 -31 -21 -67 -47z m279 -1288 c179 -179 321
-325 316 -325 -13 -1 -1211 -1 -1258 -1 l-38 1 223 225 c123 124 226 230 227
235 2 6 7 10 12 10 4 0 47 41 96 90 48 50 90 90 92 90 2 0 151 -146 330 -325z
m3320 0 c178 -179 318 -325 311 -326 -92 -3 -1289 -3 -1289 1 0 6 643 650 649
650 2 0 150 -146 329 -325z"/>
</g>
</svg>
