<svg width="40" height="40" viewBox="0 0 40 40" fill="none" xmlns="http://www.w3.org/2000/svg">
<circle cx="20" cy="20" r="20" fill="#F4F4F4"/>
<path d="M23.48 7V16L22.796 23.992H17.684L17 16V7H23.48ZM20.996 25.9C21.86 25.9 22.448 26.068 22.76 26.404C23.096 26.716 23.264 27.304 23.264 28.168V29.752C23.264 30.616 23.096 31.216 22.76 31.552C22.448 31.864 21.86 32.02 20.996 32.02H19.52C18.656 32.02 18.056 31.864 17.72 31.552C17.408 31.216 17.252 30.616 17.252 29.752V28.168C17.252 27.304 17.408 26.716 17.72 26.404C18.056 26.068 18.656 25.9 19.52 25.9H20.996Z" fill="#2E3238"/>
</svg>
