<svg width="85" height="71" viewBox="0 0 85 71" fill="none" xmlns="http://www.w3.org/2000/svg">
<path fill-rule="evenodd" clip-rule="evenodd" d="M4.01196 26.0504L28.7748 8.10079L4.94576 0.25L4.01196 26.0504ZM55.4052 8.10079L80.168 26.0504L79.1997 0.25L55.4052 8.10079ZM45.1681 13.4615L53.1572 8.10078H30.9883L38.9774 13.4615L42.09 31.8607L45.1681 13.4615ZM55.4051 23.2144L43.3004 39.7115L64.9506 55.586L49.1107 62.1917V56.1048H35V62.2263L19.1255 55.586L40.8794 39.6423L28.7747 23.1453L0 44.2075L12.1047 60.7045L35 70.25H49.1107H49.1453L71.9714 60.7045L84.0761 44.2075L55.4051 23.2144ZM50.7707 37.5326L56.4427 31.8607L62.1146 37.5326H50.7707ZM27.7372 31.8607L33.4091 37.5326H22.0998L27.7372 31.8607Z" fill="#D1D1D1"/>
</svg>
