<svg width="14" height="14" viewBox="0 0 14 14" fill="none" xmlns="http://www.w3.org/2000/svg">
<path d="M5.26136 9.75635C5.82386 8.92807 6.37074 8.11932 6.91761 7.31057C8.34339 5.20469 9.77308 3.09881 11.1989 0.992936C11.5348 0.500653 11.9215 0.42642 12.4098 0.758516C12.7536 0.992936 13.1012 1.22736 13.4411 1.46178C13.8981 1.77434 13.9723 2.17285 13.6598 2.63388C11.6325 5.62274 9.60902 8.6116 7.58167 11.6005C7.2262 12.124 6.87464 12.6475 6.51917 13.1672C6.34339 13.425 6.12464 13.636 5.81214 13.7181C5.43323 13.8157 5.10901 13.679 4.80823 13.468C4.70667 13.3977 4.62073 13.3078 4.53089 13.2219C3.19104 11.8818 1.8512 10.5417 0.511353 9.20156C0.0621336 8.75225 0.0621336 8.37718 0.511353 7.92397C0.804322 7.62703 1.09729 7.3301 1.39417 7.03708C1.75354 6.68154 2.17151 6.67763 2.53088 7.03708C3.38635 7.8849 4.23401 8.74053 5.08558 9.59226C5.14026 9.64305 5.19105 9.68993 5.26136 9.75635Z" fill="#F4F4F4"/>
</svg>
