<svg width="14" height="14" viewBox="0 0 14 14" fill="none" xmlns="http://www.w3.org/2000/svg">
<path d="M5.26142 9.75635C5.82392 8.92807 6.3708 8.11932 6.91767 7.31057C8.34346 5.20469 9.77314 3.09881 11.1989 0.992936C11.5349 0.500653 11.9216 0.42642 12.4099 0.758516C12.7536 0.992936 13.1013 1.22736 13.4411 1.46178C13.8981 1.77434 13.9724 2.17285 13.6599 2.63388C11.6325 5.62274 9.60908 8.6116 7.58174 11.6005C7.22627 12.124 6.8747 12.6475 6.51923 13.1672C6.34345 13.425 6.1247 13.636 5.8122 13.7181C5.43329 13.8157 5.10908 13.679 4.80829 13.468C4.70673 13.3977 4.6208 13.3078 4.53095 13.2219C3.19111 11.8818 1.85126 10.5417 0.511414 9.20156C0.0621947 8.75225 0.0621947 8.37718 0.511414 7.92397C0.804383 7.62703 1.09735 7.3301 1.39423 7.03708C1.7536 6.68154 2.17157 6.67763 2.53095 7.03708C3.38642 7.8849 4.23407 8.74053 5.08564 9.59226C5.14033 9.64305 5.19111 9.68993 5.26142 9.75635Z" fill="#5D6066"/>
</svg>
