<?xml version="1.0" encoding="iso-8859-1"?>
<!-- Generator: Adobe Illustrator 16.0.0, SVG Export Plug-In . SVG Version: 6.00 Build 0)  -->
<!DOCTYPE svg PUBLIC "-//W3C//DTD SVG 1.1//EN" "http://www.w3.org/Graphics/SVG/1.1/DTD/svg11.dtd">
<svg version="1.1" id="Capa_1" xmlns="http://www.w3.org/2000/svg" xmlns:xlink="http://www.w3.org/1999/xlink" x="0px" y="0px"
	 width="588.161px" height="588.161px" viewBox="0 0 588.161 588.161" style="enable-background:new 0 0 588.161 588.161;"
	 xml:space="preserve">
<g>
	<g>
		<path d="M57.036,330.272c2.35,2.48,5.883,3.904,9.702,3.904c2.787,0,5.533-0.763,7.821-2.146c0.298,0.033,0.6,0.062,0.926,0.062
			h104.624c3.647,0,6.842-1.273,9.458-3.889l0.388-0.403c2.407-2.396,3.676-5.586,3.676-9.233v-91.865
			c0-5.251-2.489-8.393-4.667-10.13c-1.738-2.179-4.875-4.667-10.13-4.667H69.109c-4.349,0-8.062,1.787-10.449,5.022
			c-2.554,3.472-3.346,8.286-2.097,12.652c-0.135,30.592-1.032,61.343-2.668,91.4C53.695,324.679,54.78,327.89,57.036,330.272z
			 M81.712,305.041c0.996-22.036,1.607-44.255,1.815-66.092h83.061v66.092H81.712z M188.216,326.674L188.216,326.674
			L188.216,326.674L188.216,326.674z"/>
		<path d="M165.487,198.859c2.35,2.477,5.883,3.9,9.702,3.9c2.787,0,5.532-0.759,7.825-2.146c0.298,0.033,0.604,0.061,0.926,0.061
			h104.624c3.647,0,6.837-1.273,9.49-3.917l0.351-0.375c2.407-2.395,3.681-5.585,3.681-9.233V95.285
			c0-5.255-2.489-8.393-4.672-10.127c-1.738-2.179-4.875-4.671-10.126-4.671H177.559c-4.349,0-8.062,1.787-10.444,5.022
			c-2.554,3.468-3.35,8.287-2.102,12.652c-0.134,30.628-1.032,61.383-2.668,91.404C162.145,193.266,163.23,196.477,165.487,198.859z
			 M190.163,173.625c0.996-21.979,1.607-44.19,1.815-66.092h83.061v66.092H190.163z"/>
		<path d="M318.768,135.934c2.351,2.477,5.888,3.9,9.706,3.9c2.787,0,5.533-0.759,7.821-2.146c0.298,0.037,0.601,0.065,0.927,0.065
			h104.623c3.647,0,6.843-1.272,9.082-3.541c0.118-0.098,0.229-0.204,0.408-0.379l0.351-0.372c2.407-2.395,3.681-5.585,3.681-9.233
			V32.363c0-5.255-2.489-8.397-4.672-10.131c-1.738-2.179-4.876-4.671-10.127-4.671H330.841c-4.35,0-8.062,1.787-10.445,5.022
			c-2.554,3.472-3.35,8.287-2.102,12.652c-0.134,30.633-1.032,61.388-2.668,91.404C315.426,130.34,316.512,133.551,318.768,135.934z
			 M343.443,110.703c0.996-21.979,1.607-44.194,1.815-66.096h83.061v66.096H343.443z"/>
		<path d="M313.239,211.748c1.412,1.489,3.517,2.342,5.777,2.342c1.521,0,3.023-0.388,4.312-1.102
			c0.086,0.004,0.171,0.008,0.261,0.008h54.66c2.171,0,4.08-0.763,5.517-2.208l-1.444-1.44l1.762,1.122
			c1.444-1.44,2.208-3.346,2.208-5.516v-47.989c0-2.432-0.963-4.541-2.722-5.989c-1.444-1.754-3.558-2.717-5.981-2.717h-57.332
			c-2.591,0-4.811,1.073-6.246,3.023c-1.481,2.012-1.963,4.786-1.285,7.312c-0.074,15.937-0.539,31.942-1.392,47.573
			C311.216,208.378,311.872,210.304,313.239,211.748z M327.857,196.921c0.481-10.873,0.779-21.816,0.894-32.583h41.461v32.583
			H327.857z"/>
		<path d="M80.533,188.525c1.412,1.489,3.517,2.342,5.777,2.342c1.522,0,3.023-0.388,4.309-1.102
			c0.085,0.004,0.171,0.008,0.261,0.008h54.664c2.171,0,4.076-0.763,5.516-2.208l-1.444-1.44l1.763,1.122
			c1.444-1.436,2.211-3.341,2.211-5.516v-47.985c0-2.432-0.963-4.545-2.721-5.989c-1.444-1.754-3.558-2.717-5.981-2.717h-57.34
			c-2.591,0-4.811,1.073-6.242,3.023c-1.481,2.011-1.963,4.786-1.286,7.311c-0.073,15.949-0.542,31.955-1.391,47.573
			C78.505,185.155,79.166,187.084,80.533,188.525z M95.151,173.702c0.478-10.833,0.779-21.775,0.894-32.583h41.461v32.583H95.151z"
			/>
		<path d="M232.084,63.489c1.412,1.489,3.517,2.346,5.777,2.346c1.522,0,3.023-0.388,4.309-1.102
			c0.085,0.004,0.171,0.008,0.261,0.008h54.66c2.17,0,4.08-0.767,5.516-2.211l-1.444-1.436l0,0l1.763,1.122
			c1.444-1.44,2.207-3.341,2.207-5.516V8.707c0-2.428-0.963-4.537-2.721-5.985C300.967,0.963,298.854,0,296.426,0h-57.328
			c-2.591,0-4.811,1.073-6.243,3.023c-1.481,2.012-1.962,4.786-1.285,7.312c-0.073,15.94-0.542,31.946-1.391,47.577
			C230.057,60.119,230.718,62.045,232.084,63.489z M246.703,48.662c0.481-10.869,0.779-21.812,0.894-32.583h41.457v32.583H246.703z"
			/>
		<path d="M165.193,71.853c1.134,1.2,2.819,1.885,4.623,1.885c1.151,0,2.289-0.277,3.28-0.795h40.029
			c1.738,0,3.268-0.612,4.305-1.665l0.351-0.343c1.159-1.159,1.775-2.689,1.775-4.418V31.42c0-1.926-0.763-3.607-2.15-4.766
			c-1.159-1.387-2.84-2.146-4.762-2.146h-41.922c-2.073,0-3.852,0.865-5.01,2.436c-1.167,1.587-1.554,3.758-1.044,5.745
			c-0.053,11.591-0.396,23.26-1.016,34.68C163.553,69.136,164.087,70.686,165.193,71.853z M176.85,60.086
			c0.33-7.573,0.539-15.202,0.624-22.726h29.221v22.726H176.85z"/>
		<path d="M511.372,102.461h-41.918c-2.072,0-3.852,0.865-5.006,2.432c-1.171,1.587-1.559,3.762-1.049,5.745
			c-0.053,11.624-0.396,23.289-1.016,34.688c-0.098,1.767,0.437,3.313,1.542,4.484c1.135,1.2,2.819,1.889,4.623,1.889
			c1.146,0,2.284-0.277,3.271-0.795h40.037c1.738,0,3.272-0.616,4.174-1.571l0.478-0.437c1.163-1.154,1.779-2.685,1.779-4.418
			v-35.096c0-1.926-0.764-3.611-2.15-4.766C514.975,103.22,513.294,102.461,511.372,102.461z M505.432,115.313v22.729h-29.845
			c0.33-7.573,0.538-15.202,0.624-22.729H505.432z"/>
		<path d="M487.871,378.18c3.611-2.379,5.594-6.206,5.594-10.812v-88.609h27.304c3.647,0,6.842-1.273,9.082-3.541
			c0.118-0.098,0.229-0.204,0.408-0.38l0.354-0.371c2.407-2.395,3.677-5.585,3.677-9.233v-91.861c0-5.255-2.489-8.396-4.672-10.13
			c-1.738-2.179-4.876-4.668-10.127-4.668H409.764c-4.349,0-8.062,1.787-10.448,5.022c-2.555,3.468-3.35,8.287-2.102,12.652
			c-0.135,30.633-1.032,61.384-2.668,91.4c-0.2,3.697,0.885,6.908,3.142,9.291c2.35,2.477,5.887,3.9,9.706,3.9
			c2.786,0,5.532-0.759,7.825-2.146c0.298,0.037,0.6,0.065,0.922,0.065h50.271v79.393c-27.019,6.227-53.954,12.812-80.128,19.58
			v-26.781h35.896c2.175,0,4.08-0.767,5.52-2.211l-1.448-1.437l0,0l1.763,1.122c1.444-1.44,2.207-3.346,2.207-5.516v-47.997
			c0-2.424-0.963-4.538-2.721-5.986c-1.444-1.758-3.558-2.721-5.985-2.721h-57.32c-2.591,0-4.811,1.073-6.242,3.019
			c-1.485,2.016-1.967,4.794-1.285,7.32c-0.073,15.937-0.539,31.942-1.392,47.572c-0.122,2.208,0.539,4.138,1.905,5.577
			c0.579,0.612,1.294,1.082,2.068,1.465v54.358h-63.864v-59.396h34.224c3.647,0,6.838-1.273,9.082-3.538
			c0.118-0.098,0.229-0.203,0.408-0.379l0.354-0.376c2.407-2.395,3.676-5.585,3.676-9.232v-91.861c0-5.251-2.488-8.393-4.671-10.126
			c-1.738-2.179-4.88-4.672-10.131-4.672H218.608c-4.35,0-8.062,1.787-10.449,5.022c-2.554,3.472-3.35,8.287-2.101,12.652
			c-0.135,30.628-1.032,61.383-2.668,91.404c-0.2,3.697,0.886,6.908,3.142,9.29c2.35,2.478,5.888,3.901,9.703,3.901
			c0.787,0,1.57-0.078,2.342-0.196v68.156c0,3.187,0.938,5.965,2.791,8.254c2.183,4.565,6.426,7.181,11.693,7.181h35.276v18.385
			l-23.562,18.123c-0.869,0.058-1.722,0.217-2.46,0.449c-0.706,0.062-1.432,0.184-2.211,0.375
			c-21.036-8.213-42.028-17.132-62.42-26.536v-33.762h3.305c2.174,0,4.08-0.768,5.516-2.212l-1.449-1.436l0,0l1.759,1.122
			c1.444-1.437,2.211-3.342,2.211-5.517v-47.989c0-2.427-0.962-4.536-2.721-5.981c-1.444-1.762-3.558-2.725-5.985-2.725h-57.324
			c-2.591,0-4.807,1.072-6.243,3.019c-1.485,2.016-1.966,4.794-1.285,7.319c-0.073,15.937-0.542,31.942-1.391,47.573
			c-0.123,2.207,0.539,4.137,1.905,5.577c1.412,1.489,3.517,2.342,5.777,2.342c1.521,0,3.023-0.388,4.312-1.102
			c0.085,0.004,0.171,0.009,0.257,0.009h24.313v41.979c0,2.473,0.608,4.766,1.701,6.598c1.155,2.628,3.228,4.655,6.161,6.03
			c22.914,10.723,46.981,21.04,71.559,30.678v81.094c0,8.629,6.802,13.15,13.521,13.15s13.521-4.517,13.521-13.15v-80.869
			l25.431-18.16c7.03-0.372,12.843-6.402,12.843-13.51c0-0.645-0.069-1.269-0.167-1.885c0.09-0.624,0.167-1.256,0.167-1.946v-26.087
			h75.472c3.19,0,5.97-0.935,8.258-2.791c4.57-2.179,7.182-6.422,7.182-11.689v-12.411c31.673-8.274,63.407-16.042,94.342-23.084
			C483.693,381.888,486.125,380.407,487.871,378.18z M422.371,251.712c0.995-22.041,1.607-44.256,1.815-66.096h83.061v66.096
			H422.371z M371.795,334.87c0.481-10.873,0.779-21.815,0.894-32.583h41.461v32.583H371.795z M245.626,346.119h22.713v58.438
			h-22.713V346.119z M316.083,252.98v66.092h-84.872c0.996-22.036,1.607-44.255,1.815-66.092H316.083z M172.949,392.562h-3.435
			c-1.702-0.661-3.521-1.024-5.349-1.024c-1.828,0-3.647,0.363-5.349,1.024h-28.217c0.477-10.832,0.779-21.775,0.894-32.583h41.461
			v32.583H172.949z"/>
	</g>
</g>
<g>
</g>
<g>
</g>
<g>
</g>
<g>
</g>
<g>
</g>
<g>
</g>
<g>
</g>
<g>
</g>
<g>
</g>
<g>
</g>
<g>
</g>
<g>
</g>
<g>
</g>
<g>
</g>
<g>
</g>
</svg>
